<svg xmlns="http://www.w3.org/2000/svg" xmlns:xlink="http://www.w3.org/1999/xlink" fill="none" version="1.1" width="706.0118408203125" height="706.0117797851562" viewBox="0 0 706.0118408203125 706.0117797851562"><defs><filter id="master_svg0_6_00050" filterUnits="objectBoundingBox" color-interpolation-filters="sRGB" x="-0.2880496610705971" y="-0.2880496610705971" width="1.576099322141194" height="1.576099322141194"><feFlood flood-opacity="0" result="BackgroundImageFix"/><feBlend mode="normal" in="SourceGraphic" in2="BackgroundImageFix" result="shape"/><feGaussianBlur stdDeviation="35.5" result="effect1_foregroundBlur"/></filter><radialGradient cx="0" cy="0" r="1" gradientUnits="userSpaceOnUse" id="master_svg1_6_4733" gradientTransform="translate(352.9915008544922 353.020263671875) rotate(90) scale(246.4852752685547 246.4852752685547)"><stop offset="3.57142873108387%" stop-color="#FFFFFF" stop-opacity="1"/><stop offset="42.85714328289032%" stop-color="#FFFFFF" stop-opacity="0.3400000035762787"/><stop offset="100%" stop-color="#FFFFFF" stop-opacity="0"/></radialGradient><linearGradient x1="0" y1="0.5" x2="1" y2="0.5" id="master_svg2_7_0574"><stop offset="0%" stop-color="#FFA1A1" stop-opacity="0"/><stop offset="28.57142984867096%" stop-color="#51D633" stop-opacity="0.7107171416282654"/><stop offset="52.85714268684387%" stop-color="#33D6D1" stop-opacity="0.8374526500701904"/><stop offset="75%" stop-color="#33C0D6" stop-opacity="0.565518856048584"/><stop offset="100%" stop-color="#CACACA" stop-opacity="0"/></linearGradient><radialGradient cx="0" cy="0" r="1" gradientUnits="userSpaceOnUse" id="master_svg3_6_4733" gradientTransform="translate(353.01636123657227 354.04466247558594) rotate(90) scale(264.5 264.5)"><stop offset="3.57142873108387%" stop-color="#FFFFFF" stop-opacity="1"/><stop offset="42.85714328289032%" stop-color="#FFFFFF" stop-opacity="0.3400000035762787"/><stop offset="100%" stop-color="#FFFFFF" stop-opacity="0"/></radialGradient><linearGradient x1="0" y1="0.5" x2="1" y2="0.5" id="master_svg4_7_0574"><stop offset="0%" stop-color="#FFA1A1" stop-opacity="0"/><stop offset="28.57142984867096%" stop-color="#51D633" stop-opacity="0.7107171416282654"/><stop offset="52.85714268684387%" stop-color="#33D6D1" stop-opacity="0.8374526500701904"/><stop offset="75%" stop-color="#33C0D6" stop-opacity="0.565518856048584"/><stop offset="100%" stop-color="#CACACA" stop-opacity="0"/></linearGradient></defs><g><g transform="matrix(1,-5.400848479553133e-8,5.400848479553133e-8,1,-0.000004836171541455769,0.0000047806343417278185)"><g transform="matrix(1,-0.00005831212183693424,0.00005831212183693424,1,-0.006212281223668015,0.006210604002760078)" filter="url(#master_svg0_6_00050)"><ellipse cx="352.9915008544922" cy="353.020263671875" rx="246.4852752685547" ry="246.4852752685547" fill="url(#master_svg1_6_4733)" fill-opacity="1"/><ellipse cx="352.9915008544922" cy="353.020263671875" rx="239.9852752685547" ry="239.9852752685547" stroke="url(#master_svg2_7_0574)" fill-opacity="0" fill="none" stroke-width="13"/></g><g transform="matrix(1,1.0313062404065931e-8,-1.0313062404065931e-8,1,9.234796891632868e-7,-9.12874753566939e-7)"><ellipse cx="353.01636123657227" cy="354.04466247558594" rx="264.5" ry="264.5" fill="url(#master_svg3_6_4733)" fill-opacity="1"/><ellipse cx="353.01636123657227" cy="354.04466247558594" rx="263.5" ry="263.5" stroke="url(#master_svg4_7_0574)" fill-opacity="0" fill="none" stroke-width="2"/></g></g><g><g><path d="M317.3017373046875,174.67375244140624Q318.8357373046875,173.96575244140624,319.9567373046875,174.31975244140625Q321.0777373046875,174.67375244140624,324.4997373046875,176.67975244140627Q327.21373730468747,178.44975244140625,328.0987373046875,179.39375244140626Q328.9837373046875,180.33775244140625,329.1017373046875,181.98975244140624Q329.3377373046875,184.34975244140625,328.1577373046875,186.94575244140626Q327.09573730468753,188.95175244140626,327.9217373046875,189.18775244140625Q328.7477373046875,189.42375244140624,335.3557373046875,188.00775244140624Q339.6037373046875,187.18175244140625,341.5507373046875,187.12275244140625Q343.4977373046875,187.06375244140625,345.8577373046875,187.77175244140625Q352.4657373046875,189.54175244140626,353.9997373046875,192.43275244140625Q355.5337373046875,195.32375244140624,351.6397373046875,198.39175244140625Q347.1557373046875,201.57775244140623,341.84573730468753,206.53375244140625Q336.5357373046875,211.48975244140627,336.5357373046875,212.31575244140623Q336.5357373046875,213.25975244140625,339.7217373046875,214.20375244140627Q342.6717373046875,215.14775244140625,343.79273730468753,216.38675244140626Q344.9137373046875,217.62575244140623,344.5597373046875,219.74975244140626Q344.3237373046875,221.40175244140624,343.6157373046875,221.81475244140626Q342.9077373046875,222.22775244140627,339.8397373046875,222.46375244140626Q335.4737373046875,223.05375244140626,331.2847373046875,224.41075244140626Q327.09573730468753,225.76775244140623,325.91573730468747,227.18375244140626Q324.7357373046875,228.48175244140623,323.7917373046875,243.82175244140626Q323.4377373046875,248.65975244140625,323.2017373046875,251.49175244140625Q322.9657373046875,254.32375244140627,322.5527373046875,256.74275244140625Q322.1397373046875,259.16175244140624,321.8447373046875,260.22375244140625Q321.5497373046875,261.28575244140626,320.7237373046875,262.1117524414062Q319.8977373046875,262.93775244140625,319.07173730468753,263.05575244140624Q318.2457373046875,263.17375244140624,316.9477373046875,263.17375244140624Q313.8797373046875,263.05575244140624,313.4077373046875,262.40675244140624Q312.9357373046875,261.75775244140624,314.2337373046875,259.3977524414063Q315.1777373046875,257.74575244140624,315.3547373046875,255.20875244140626Q315.5317373046875,252.67175244140626,315.1777373046875,244.17575244140625Q315.1777373046875,243.58575244140627,315.0597373046875,242.16975244140625Q314.7057373046875,233.67375244140624,314.0567373046875,232.37575244140623Q313.4077373046875,231.07775244140623,309.6317373046875,232.02175244140625Q309.0417373046875,232.13975244140624,308.8057373046875,232.13975244140624Q301.0177373046875,234.02775244140625,299.3657373046875,228.12775244140624Q298.8937373046875,226.23975244140627,298.3037373046875,225.59075244140627Q297.71373730468747,224.94175244140627,296.6517373046875,224.94175244140627Q294.7637373046875,224.94175244140627,291.4597373046875,219.98575244140625Q288.1557373046875,215.02975244140626,287.3297373046875,212.19775244140624Q286.5037373046875,209.48375244140624,286.6807373046875,206.59275244140625Q286.8577373046875,203.70175244140626,287.9197373046875,203.22975244140625Q288.8637373046875,202.99375244140626,291.6367373046875,207.00575244140626Q294.4097373046875,211.01775244140626,298.1267373046875,213.67275244140626Q301.8437373046875,216.32775244140623,301.8437373046875,218.09775244140624Q301.8437373046875,219.51375244140624,303.02373730468753,220.22175244140624Q304.2037373046875,220.92975244140627,305.73773730468747,220.33975244140623Q307.1537373046875,219.74975244140626,311.2837373046875,216.32775244140623Q314.2337373046875,213.84975244140625,314.8827373046875,212.66975244140625Q315.5317373046875,211.48975244140627,315.5317373046875,209.36575244140624L315.5317373046875,206.06175244140624L310.9297373046875,206.53375244140625Q302.1977373046875,207.47775244140627,298.5397373046875,203.81975244140625Q297.0057373046875,202.28575244140626,297.5957373046875,201.51875244140626Q298.1857373046875,200.75175244140627,301.6077373046875,200.27975244140626Q305.1477373046875,199.68975244140626,310.2807373046875,197.44775244140624Q315.4137373046875,195.20575244140625,315.7677373046875,194.02575244140624Q316.3577373046875,192.60975244140624,317.3607373046875,185.58875244140626Q318.3637373046875,178.56775244140624,317.3607373046875,178.21375244140626Q316.3577373046875,177.85975244140624,316.3577373046875,176.38475244140625Q316.3577373046875,174.90975244140625,317.3017373046875,174.67375244140624ZM334.1757373046875,196.38575244140625Q334.0577373046875,195.91375244140625,332.7007373046875,196.03175244140624Q331.3437373046875,196.14975244140624,329.3377373046875,196.85775244140626Q327.3317373046875,197.56575244140623,326.3287373046875,198.39175244140625Q325.3257373046875,199.21775244140625,325.3257373046875,201.16475244140625Q325.3257373046875,203.11175244140625,326.3877373046875,203.11175244140625Q327.21373730468747,203.11175244140625,330.6947373046875,200.10275244140627Q334.1757373046875,197.09375244140625,334.1757373046875,196.38575244140625Z" fill="#3D3D3D" fill-opacity="1"/></g><g><path d="M309.1857373046875,312.45175244140626L313.8757373046875,314.32775244140623L313.8757373046875,318.48175244140623Q313.8757373046875,322.76975244140624,312.8037373046875,327.3257524414063L311.7317373046875,332.0157524414062L315.3497373046875,335.90175244140624Q318.6997373046875,339.65375244140625,320.5757373046875,343.80775244140625L322.4517373046875,348.09575244140626L320.44173730468754,349.70375244140627Q318.5657373046875,351.17775244140626,316.4217373046875,351.31175244140627Q314.2777373046875,351.4457524414063,312.8037373046875,350.23975244140627L308.6497373046875,346.48775244140626L305.9697373046875,343.80775244140625L301.4137373046875,348.49775244140625Q297.2597373046875,353.05375244140623,292.8377373046875,355.93475244140626Q288.41573730468747,358.81575244140623,284.9317373046875,358.94975244140625Q281.4477373046875,359.08375244140626,281.11273730468747,357.47575244140626Q280.7777373046875,355.86775244140625,282.9217373046875,355.13075244140623Q285.0657373046875,354.39375244140626,289.2197373046875,349.8377524414062Q293.3737373046875,345.28175244140624,294.5797373046875,342.4677524414062Q295.3837373046875,340.32375244140627,295.2497373046875,339.45275244140623Q295.1157373046875,338.58175244140625,293.3737373046875,336.57175244140626Q290.9617373046875,333.75775244140624,290.9617373046875,330.13975244140624Q290.9617373046875,327.19175244140627,291.7657373046875,326.92375244140624Q292.5697373046875,326.65575244140626,295.9197373046875,327.99575244140624Q301.2797373046875,330.27375244140626,302.3517373046875,326.2537524414063Q303.0217373046875,323.84175244140624,302.8207373046875,319.88875244140627Q302.6197373046875,315.93575244140624,301.9497373046875,314.46175244140625Q301.0117373046875,312.58575244140627,301.54773730468753,311.24575244140624Q302.0837373046875,309.90575244140626,303.1557373046875,310.30775244140625L309.1857373046875,312.45175244140626ZM256.3897373046875,306.28775244140627Q255.9877373046875,302.93775244140625,257.3277373046875,302.93775244140625Q258.6677373046875,302.93775244140625,263.3577373046875,306.01975244140624L268.1817373046875,309.23575244140625L268.1817373046875,315.93575244140624Q268.1817373046875,322.6357524414062,268.5837373046875,328.3977524414062L269.2537373046875,334.1597524414062L273.1397373046875,333.48975244140627Q276.6237373046875,332.95375244140627,277.4277373046875,332.0827524414062Q278.2317373046875,331.21175244140625,278.9017373046875,327.19175244140627Q279.7057373046875,322.90375244140625,278.4997373046875,320.4917524414062Q276.0877373046875,315.66775244140626,281.9837373046875,316.73975244140627Q285.8697373046875,317.54375244140624,287.2097373046875,319.01775244140623Q288.5497373046875,320.4917524414062,288.41573730468747,323.97575244140626Q287.8797373046875,332.28375244140625,288.5497373046875,342.60175244140623L288.6837373046875,347.29175244140623L284.79773730468753,347.29175244140623Q281.9837373046875,347.29175244140623,281.11273730468747,347.96175244140625Q280.2417373046875,348.63175244140626,277.96373730468747,352.3837524414063Q274.8817373046875,357.6097524414063,272.0677373046875,360.02175244140625Q269.6557373046875,361.8977524414063,268.9187373046875,364.57775244140623Q268.1817373046875,367.25775244140624,267.9137373046875,374.09175244140624Q267.6457373046875,378.51375244140627,266.2387373046875,379.78675244140624Q264.8317373046875,381.05975244140626,261.21373730468747,379.7197524414063Q259.3377373046875,379.1837524414062,258.6007373046875,378.37975244140625Q257.8637373046875,377.5757524414063,257.5957373046875,375.9677524414062Q256.2557373046875,368.1957524414063,257.9977373046875,352.51775244140623Q259.0697373046875,342.06575244140623,258.0647373046875,325.85175244140623Q257.0597373046875,309.63775244140623,256.3897373046875,306.28775244140627ZM273.27373730468753,343.5397524414062Q272.73773730468747,342.19975244140625,271.3977373046875,342.26675244140625Q270.0577373046875,342.33375244140626,269.5217373046875,343.80775244140625Q267.2437373046875,351.71375244140626,268.9857373046875,352.65175244140624Q269.9237373046875,353.05375244140623,271.2637373046875,350.3737524414063Q271.5317373046875,349.70375244140627,271.7997373046875,349.16775244140626Q273.6757373046875,344.74575244140624,273.27373730468753,343.5397524414062ZM315.3497373046875,275.60175244140623Q319.36973730468753,273.59175244140624,326.2707373046875,275.5347524414062Q333.1717373046875,277.47775244140627,334.9137373046875,281.09575244140626Q337.19173730468754,286.4557524414063,338.7997373046875,308.29775244140626L340.5417373046875,332.68575244140624L342.41773730468753,359.08375244140626Q343.2217373046875,369.80375244140623,343.2217373046875,373.48875244140623Q343.2217373046875,377.17375244140624,342.2837373046875,379.7197524414063L341.0777373046875,383.8737524414063L334.1097373046875,383.60575244140625Q329.82173730468753,383.47175244140624,328.2807373046875,383.06975244140625Q326.7397373046875,382.66775244140626,325.9357373046875,381.46175244140625Q324.59573730468753,379.45175244140626,320.44173730468754,375.56575244140623Q314.4117373046875,369.80375244140623,319.7717373046875,369.6697524414062Q324.59573730468753,369.6697524414062,325.66773730468753,367.1237524414063Q326.7397373046875,364.57775244140623,325.66773730468753,355.46575244140627Q324.8637373046875,348.2297524414063,324.0597373046875,319.15175244140624Q323.6577373046875,300.6597524414062,323.2557373046875,294.96475244140623Q322.8537373046875,289.26975244140624,321.7817373046875,287.25975244140625Q320.7097373046875,285.11575244140624,319.9727373046875,284.78075244140626Q319.2357373046875,284.4457524414062,316.4217373046875,284.84775244140627Q313.2057373046875,285.24975244140626,309.8557373046875,286.65675244140624Q306.5057373046875,288.0637524414062,296.7237373046875,292.7537524414063Q287.4777373046875,297.17575244140625,285.4677373046875,297.17575244140625Q283.7257373046875,297.17575244140625,280.4427373046875,294.09375244140625Q277.1597373046875,291.01175244140626,277.5617373046875,289.80575244140624Q277.8297373046875,288.5997524414062,280.5097373046875,288.19775244140624Q286.8077373046875,287.79575244140625,293.5077373046875,285.31675244140627Q300.2077373046875,282.8377524414062,315.3497373046875,275.60175244140623Z" fill="#3D3D3D" fill-opacity="1"/></g><g><path d="M408.3537373046875,350.87775244140624Q409.6497373046875,350.87775244140624,413.9697373046875,353.90175244140624Q418.2897373046875,356.92575244140625,418.5777373046875,358.07775244140623Q419.5857373046875,361.10175244140623,418.0737373046875,365.1337524414063Q416.5617373046875,369.16575244140626,413.1057373046875,373.05375244140623Q408.4977373046875,377.94975244140625,406.3377373046875,381.11775244140625L404.1777373046875,384.28575244140626L408.64173730468747,387.45375244140627L413.1057373046875,390.33375244140626L420.73773730468747,388.74975244140626Q428.36973730468753,387.30975244140626,430.9617373046875,386.3017524414063Q432.68973730468747,385.58175244140625,433.8417373046875,385.72575244140626Q434.9937373046875,385.86975244140626,437.0097373046875,387.30975244140626Q440.4657373046875,389.1817524414063,441.9057373046875,389.1817524414063Q443.2017373046875,389.1817524414063,445.3617373046875,391.70175244140626Q447.5217373046875,394.22175244140624,447.5217373046875,395.80575244140624Q447.5217373046875,397.24575244140624,442.5537373046875,397.24575244140624Q437.5857373046875,397.24575244140624,430.4577373046875,398.75775244140624Q423.3297373046875,400.26975244140624,421.4577373046875,400.70175244140626Q420.0177373046875,400.98975244140627,419.7297373046875,402.50175244140627Q419.44173730468754,404.01375244140627,419.44173730468754,410.78175244140624Q419.44173730468754,417.6937524414062,419.0097373046875,419.70975244140624Q418.5777373046875,421.72575244140626,416.27373730468753,425.3257524414063Q413.1057373046875,430.36575244140624,409.6497373046875,432.09375244140625Q407.2017373046875,433.38975244140624,405.4017373046875,433.38975244140624Q403.6017373046875,433.38975244140624,397.5537373046875,432.23775244140626Q388.9137373046875,430.65375244140625,385.6017373046875,430.65375244140625Q379.5537373046875,430.65375244140625,376.5297373046875,422.73375244140624Q375.3777373046875,419.2777524414063,371.4897373046875,417.54975244140627Q367.0257373046875,415.67775244140626,361.9137373046875,411.6457524414062Q356.8017373046875,407.61375244140623,357.0897373046875,406.31775244140624Q357.2337373046875,405.02175244140625,366.2337373046875,402.6457524414062Q375.2337373046875,400.26975244140624,380.9937373046875,398.54175244140623L386.8977373046875,396.6697524414062L386.8977373046875,389.75775244140624Q386.8977373046875,384.7177524414062,387.3297373046875,383.56575244140623Q387.7617373046875,382.41375244140625,390.0657373046875,381.26175244140626Q393.3777373046875,379.82175244140626,394.9617373046875,378.52575244140627Q396.5457373046875,376.94175244140627,400.9377373046875,369.6697524414063Q405.3297373046875,362.3977524414062,404.8977373046875,361.96575244140627Q404.1777373046875,361.24575244140624,400.0017373046875,365.4217524414062Q395.2497373046875,370.17375244140624,390.3537373046875,371.75775244140624Q385.4577373046875,373.34175244140624,383.1537373046875,371.03775244140627Q380.9937373046875,368.87775244140624,381.9297373046875,367.29375244140624Q382.8657373046875,365.70975244140624,386.8977373046875,363.8377524414062Q392.3697373046875,361.53375244140625,400.0017373046875,356.2057524414063Q407.6337373046875,350.87775244140624,408.3537373046875,350.87775244140624ZM406.6257373046875,402.7177524414062L401.7297373046875,402.28575244140626Q396.8337373046875,402.14175244140625,391.3617373046875,404.3737524414063Q385.8897373046875,406.60575244140625,379.9857373046875,408.47775244140627Q375.8097373046875,409.77375244140626,373.7937373046875,410.63775244140623Q371.7777373046875,411.50175244140627,371.27373730468753,412.43775244140625Q370.7697373046875,413.3737524414063,371.8497373046875,414.38175244140626Q372.9297373046875,415.38975244140624,375.5217373046875,416.68575244140624Q379.9857373046875,418.98975244140627,384.0177373046875,422.01375244140627Q387.3297373046875,424.46175244140625,389.34573730468753,424.67775244140626Q391.3617373046875,424.89375244140626,397.8417373046875,423.16575244140626Q404.1777373046875,421.58175244140625,405.68973730468747,419.3497524414063Q407.2017373046875,417.11775244140625,406.9137373046875,409.77375244140626L406.6257373046875,402.7177524414062ZM366.0177373046875,348.14175244140625Q370.1937373046875,342.09375244140625,370.9137373046875,342.09375244140625Q372.6417373046875,342.09375244140625,370.1937373046875,346.84575244140626Q366.73773730468747,353.61375244140623,366.2337373046875,355.84575244140626Q365.7297373046875,358.07775244140623,366.3057373046875,363.40575244140626Q366.73773730468747,367.72575244140626,366.5937373046875,369.23775244140626Q366.4497373046875,370.74975244140626,365.4417373046875,371.4697524414063Q363.71373730468747,372.9097524414062,362.6337373046875,371.82975244140624Q361.5537373046875,370.74975244140626,360.8337373046875,366.7177524414062Q358.9617373046875,358.94175244140627,366.0177373046875,348.14175244140625ZM416.5617373046875,326.82975244140624Q425.34573730468753,323.3737524414062,427.6497373046875,323.3737524414062Q429.5217373046875,323.3737524414062,433.7697373046875,325.74975244140626Q438.0177373046875,328.12575244140623,439.4577373046875,330.14175244140625Q442.1937373046875,333.59775244140627,438.8817373046875,336.6937524414063Q435.56973730468746,339.7897524414062,426.64173730468747,341.94975244140625Q417.8577373046875,343.96575244140627,415.4097373046875,343.96575244140627Q413.9697373046875,343.96575244140627,413.9697373046875,343.53375244140625Q414.1137373046875,342.8137524414062,418.4337373046875,338.92575244140625Q423.9057373046875,333.8857524414062,423.3297373046875,333.16575244140626Q422.6097373046875,331.58175244140625,414.1857373046875,334.46175244140625Q405.7617373046875,337.34175244140624,400.0017373046875,341.3737524414063Q393.66573730468747,345.6937524414062,390.4977373046875,346.48575244140625Q387.3297373046875,347.2777524414063,385.3137373046875,345.26175244140626Q384.5937373046875,344.54175244140623,383.9457373046875,343.02975244140623Q383.29773730468753,341.51775244140623,382.9377373046875,340.29375244140624Q382.5777373046875,339.06975244140625,383.0097373046875,339.06975244140625Q383.29773730468753,339.06975244140625,397.1937373046875,334.02975244140623Q411.0897373046875,328.98975244140627,416.5617373046875,326.82975244140624ZM392.2257373046875,320.49375244140623Q390.7857373046875,319.05375244140623,391.9377373046875,319.19775244140624Q394.3857373046875,319.34175244140624,397.6977373046875,322.50975244140625Q401.0097373046875,325.10175244140623,401.0817373046875,326.61375244140623Q401.1537373046875,328.12575244140623,398.5617373046875,329.99775244140625Q394.6737373046875,332.73375244140624,391.6497373046875,331.14975244140624Q388.9137373046875,329.56575244140623,391.9377373046875,327.26175244140626Q393.2337373046875,326.1097524414063,393.3057373046875,323.87775244140624Q393.3777373046875,321.6457524414063,392.2257373046875,320.49375244140623Z" fill="#3D3D3D" fill-opacity="1"/></g><g><path d="M279.1597373046875,398.11275244140626Q277.6387373046875,395.88975244140624,278.3407373046875,395.88975244140624Q278.4577373046875,395.88975244140624,278.9257373046875,395.88975244140624Q282.6697373046875,396.35775244140626,286.0042373046875,398.2297524414063Q289.33873730468747,400.10175244140623,289.33873730468747,401.97375244140625Q289.33873730468747,404.54775244140626,282.0847373046875,407.1217524414063Q277.8727373046875,408.52575244140627,277.9897373046875,407.23875244140623Q278.1067373046875,406.53675244140624,279.0427373046875,405.3667524414062Q281.8507373046875,401.85675244140623,279.1597373046875,398.11275244140626ZM308.0587373046875,391.7947524414063Q308.7607373046875,390.7417524414063,309.34573730468753,390.9172524414063Q309.9307373046875,391.0927524414063,313.7917373046875,392.84775244140627Q317.6527373046875,394.71975244140623,318.6472373046875,396.53325244140626Q319.64173730468747,398.34675244140624,319.29073730468747,402.5587524414062Q318.8227373046875,406.53675244140624,320.4607373046875,408.05775244140625Q323.97073730468753,411.56775244140624,330.0547373046875,413.08875244140626Q332.2777373046875,413.67375244140624,332.9212373046875,414.20025244140623Q333.56473730468747,414.72675244140623,333.56473730468747,416.24775244140625Q333.56473730468747,418.35375244140624,332.0437373046875,419.58225244140624Q330.5227373046875,420.81075244140624,325.1407373046875,423.26775244140623Q321.9817373046875,424.6717524414062,320.7532373046875,425.5492524414062Q319.5247373046875,426.4267524414063,319.4077373046875,427.4797524414063Q319.29073730468747,429.58575244140627,318.7057373046875,431.92575244140625Q318.4717373046875,433.5637524414062,318.23773730468747,446.9602524414063Q318.0037373046875,460.35675244140623,318.23773730468747,470.53575244140626Q318.3547373046875,475.6837524414062,317.5942373046875,477.6142524414063Q316.8337373046875,479.5447524414062,314.8447373046875,479.1937524414062Q313.0897373046875,478.95975244140624,312.6217373046875,478.90175244140624Q312.1537373046875,478.8427524414062,310.6327373046875,476.26875244140626Q309.5797373046875,474.51375244140627,309.2872373046875,470.8282524414062Q308.9947373046875,467.14275244140623,308.8777373046875,452.86875244140623Q308.7607373046875,432.1597524414062,308.4682373046875,431.92575244140625Q308.1757373046875,431.69175244140627,304.0807373046875,433.68075244140624Q301.0387373046875,435.08475244140624,300.1027373046875,435.20175244140626Q299.1667373046875,435.3187524414062,297.4117373046875,434.38275244140624Q294.9547373046875,433.09575244140626,294.3112373046875,433.44675244140626Q293.6677373046875,433.79775244140626,292.6732373046875,439.70625244140626Q291.6787373046875,445.61475244140627,290.04073730468747,448.77375244140626Q288.8707373046875,451.46475244140623,285.4777373046875,455.09175244140624Q282.0847373046875,458.71875244140625,280.9147373046875,458.71875244140625Q280.0957373046875,458.71875244140625,278.5747373046875,456.96375244140626Q277.0537373046875,455.20875244140626,275.8837373046875,453.2197524414063Q275.1817373046875,451.3477524414062,275.0647373046875,449.5927524414062Q274.9477373046875,447.8377524414062,275.6497373046875,441.28575244140626Q276.3517373046875,434.49975244140626,276.0007373046875,433.2127524414062Q275.6497373046875,431.92575244140625,272.3737373046875,430.34625244140625Q269.0977373046875,428.76675244140625,268.7467373046875,427.94775244140624Q268.3957373046875,426.4267524414063,273.5437373046875,425.95875244140626Q279.7447373046875,425.13975244140624,281.8507373046875,426.89475244140624Q282.7867373046875,427.4797524414063,282.37723730468747,436.31325244140623Q281.9677373046875,445.14675244140625,282.6697373046875,445.14675244140625Q284.6587373046875,445.14675244140625,288.6367373046875,438.82875244140627Q290.1577373046875,436.13775244140623,290.5672373046875,434.73375244140624Q290.9767373046875,433.32975244140624,290.7427373046875,431.34075244140627Q289.8067373046875,425.3737524414063,295.42273730468753,425.7247524414063Q297.9967373046875,425.95875244140626,302.73523730468753,424.20375244140627Q307.4737373046875,422.44875244140627,309.1117373046875,420.6937524414062Q310.5157373046875,419.2897524414062,310.8082373046875,417.5347524414062Q311.1007373046875,415.77975244140623,311.1007373046875,408.40875244140625Q311.1007373046875,401.97375244140625,310.8667373046875,399.8092524414063Q310.6327373046875,397.64475244140624,309.8137373046875,396.94275244140624Q308.4097373046875,395.88975244140624,307.8247373046875,394.31025244140625Q307.2397373046875,392.73075244140625,308.0587373046875,391.7947524414063Z" fill="#3D3D3D" fill-opacity="1"/></g><g><path d="M390.3317373046875,447.71175244140625Q391.8787373046875,446.28375244140625,397.1147373046875,448.42575244140625Q402.3507373046875,450.56775244140624,403.8977373046875,453.06675244140627Q404.8497373046875,454.97075244140626,404.96873730468747,474.9627524414062Q405.0877373046875,494.95475244140624,405.9207373046875,508.63975244140624Q406.7537373046875,520.1827524414063,406.0992373046875,523.8122524414063Q405.44473730468746,527.4417524414063,402.58873730468747,528.5127524414063Q400.2087373046875,529.4647524414063,399.6137373046875,529.2267524414062Q399.01873730468753,528.9887524414063,397.5907373046875,526.6087524414063Q396.1627373046875,523.7527524414063,395.0917373046875,523.7527524414063Q394.0207373046875,523.7527524414063,391.7597373046875,521.7297524414063L389.3797373046875,519.8257524414063L393.1877373046875,519.8257524414063Q397.4717373046875,519.7067524414063,398.1857373046875,517.7432524414063Q398.8997373046875,515.7797524414062,398.06673730468754,505.30775244140625Q397.1147373046875,493.52675244140624,396.4602373046875,491.32525244140623Q395.8057373046875,489.1237524414063,395.6867373046875,478.65175244140624Q395.4487373046875,462.7057524414063,394.1397373046875,456.99375244140623L393.7827373046875,455.08975244140623L392.7117373046875,457.23175244140623Q391.6407373046875,459.49275244140625,391.2837373046875,461.63475244140625Q390.9267373046875,463.77675244140624,390.4507373046875,465.08575244140627Q389.7367373046875,466.98975244140627,387.7732373046875,479.96075244140627Q385.8097373046875,492.9317524414063,385.8097373046875,495.90675244140624Q385.8097373046875,499.23875244140623,383.66773730468753,499.23875244140623Q381.6447373046875,499.35775244140626,380.6927373046875,496.38275244140624Q380.4547373046875,496.02575244140627,380.3357373046875,495.43075244140624Q379.8597373046875,492.4557524414063,378.6697373046875,490.73025244140626Q377.4797373046875,489.00475244140625,378.3127373046875,486.86275244140626Q379.3837373046875,484.24475244140626,379.7407373046875,479.4847524414063Q380.0977373046875,474.7247524414063,379.2647373046875,473.0587524414062Q378.7887373046875,471.51175244140626,378.9077373046875,470.50025244140625Q379.0267373046875,469.48875244140623,379.7407373046875,469.48875244140623Q380.4547373046875,469.48875244140623,381.6447373046875,470.32175244140626Q383.4297373046875,471.86875244140623,384.3222373046875,471.27375244140626Q385.2147373046875,470.67875244140623,386.1667373046875,466.98975244140627L388.5467373046875,458.06475244140626Q389.8557373046875,454.01875244140626,389.8557373046875,451.10325244140626Q389.8557373046875,448.18775244140625,390.3317373046875,447.71175244140625ZM357.2497373046875,448.7827524414063Q357.2497373046875,446.75975244140625,359.9867373046875,447.5927524414063Q362.0097373046875,448.0687524414063,367.8407373046875,450.80575244140624Q369.7447373046875,451.63875244140627,371.7677373046875,454.85175244140623Q373.31473730468747,456.87475244140626,373.4337373046875,457.82675244140626Q373.5527373046875,458.77875244140625,372.83873730468747,460.68275244140625Q371.7677373046875,463.53875244140625,372.7197373046875,464.6097524414063Q374.0287373046875,466.27575244140627,372.7792373046875,467.40625244140625Q371.5297373046875,468.53675244140624,366.4127373046875,469.96475244140623Q360.1057373046875,471.98775244140626,357.8447373046875,474.12975244140625Q356.4167373046875,475.31975244140625,356.0597373046875,476.21225244140624Q355.7027373046875,477.1047524414063,356.1787373046875,479.0087524414063Q356.5357373046875,481.50775244140624,357.7257373046875,483.88775244140623Q358.91573730468747,486.26775244140623,359.7487373046875,486.26775244140623Q360.7007373046875,486.26775244140623,360.9982373046875,484.00675244140626Q361.2957373046875,481.74575244140624,360.7007373046875,480.07975244140624Q359.7487373046875,478.17575244140625,359.8677373046875,477.8187524414062Q359.9867373046875,477.46175244140625,361.5337373046875,477.1047524414063Q364.3897373046875,476.27175244140625,368.1382373046875,479.0087524414063Q371.8867373046875,481.74575244140624,371.8867373046875,484.60175244140623Q371.8867373046875,486.86275244140626,370.5777373046875,490.0757524414063Q369.2687373046875,493.28875244140625,367.7217373046875,495.07375244140627Q366.1747373046875,496.85875244140624,366.2342373046875,499.11975244140626Q366.2937373046875,501.38075244140623,368.1977373046875,506.8547524414063Q369.5067373046875,511.01975244140624,370.69673730468753,516.8507524414063Q371.8867373046875,522.6817524414063,371.8867373046875,526.1327524414063Q371.8867373046875,527.9177524414063,370.69673730468753,528.3937524414063Q369.5067373046875,528.8697524414063,367.4837373046875,527.7987524414062Q365.4607373046875,526.7277524414062,365.4607373046875,525.7757524414062Q365.4607373046875,525.0617524414063,362.6642373046875,520.7182524414062Q359.8677373046875,516.3747524414063,359.6297373046875,513.0427524414063L359.2727373046875,509.82975244140624L354.8697373046875,516.0177524414063Q351.1807373046875,521.1347524414062,348.8007373046875,522.8602524414063Q346.4207373046875,524.5857524414063,342.9697373046875,524.5857524414063Q340.1137373046875,524.5857524414063,338.0907373046875,522.4437524414062Q333.9257373046875,517.8027524414063,337.9717373046875,518.2787524414063Q338.2097373046875,518.2787524414063,338.6857373046875,518.3977524414063Q340.4707373046875,518.7547524414063,341.42273730468753,518.2787524414063Q342.3747373046875,517.8027524414063,344.6357373046875,515.4227524414063Q347.9677373046875,511.85275244140627,351.7757373046875,504.4747524414063L355.5837373046875,497.09675244140624L352.8467373046875,489.95675244140625Q349.9907373046875,482.81675244140627,349.6337373046875,482.4002524414062Q349.2767373046875,481.98375244140624,343.1482373046875,486.2082524414063Q337.0197373046875,490.43275244140625,335.8892373046875,490.43275244140625Q334.7587373046875,490.43275244140625,331.9622373046875,487.87425244140627Q329.1657373046875,485.31575244140623,327.2617373046875,484.12575244140623Q325.3577373046875,482.69775244140624,325.6552373046875,482.1622524414063Q325.9527373046875,481.62675244140627,328.6897373046875,481.26975244140624Q331.9027373046875,480.79375244140624,335.5917373046875,478.5327524414063Q343.5647373046875,473.5347524414062,345.0522373046875,471.63075244140623Q346.5397373046875,469.72675244140623,344.6357373046875,467.10875244140624Q343.6837373046875,465.56175244140627,342.3152373046875,461.93225244140626Q340.9467373046875,458.30275244140626,340.9467373046875,457.11275244140626Q340.9467373046875,453.66175244140624,347.4917373046875,461.5157524414062Q351.8947373046875,466.75175244140627,352.6087373046875,466.75175244140627Q353.5607373046875,466.75175244140627,355.4052373046875,465.26425244140626Q357.2497373046875,463.77675244140624,357.2497373046875,463.06275244140625Q357.2497373046875,461.87275244140625,359.1537373046875,461.87275244140625Q360.7007373046875,461.87275244140625,361.8312373046875,460.92075244140625Q362.9617373046875,459.96875244140625,362.9617373046875,458.8977524414062Q362.9617373046875,457.82675244140626,360.1057373046875,454.0782524414062Q357.2497373046875,450.32975244140624,357.2497373046875,448.7827524414063Z" fill="#3D3D3D" fill-opacity="1"/></g><g><path d="M410.8347373046875,235.72875244140624Q414.6427373046875,236.08575244140624,416.5467373046875,236.97825244140626Q418.4507373046875,237.87075244140624,419.4027373046875,239.65575244140626Q420.5927373046875,242.03575244140626,419.2242373046875,243.04725244140624Q417.8557373046875,244.05875244140626,414.04773730468753,243.70175244140626Q406.6697373046875,242.86875244140626,395.7217373046875,247.03375244140625Q386.0827373046875,250.96075244140624,386.0827373046875,251.55575244140624Q386.0827373046875,252.15075244140624,390.3072373046875,253.63825244140625Q394.5317373046875,255.12575244140623,395.6027373046875,257.38675244140626Q396.5547373046875,258.81475244140626,396.2572373046875,259.8857524414062Q395.9597373046875,260.95675244140625,393.8177373046875,264.28875244140625L390.8427373046875,269.28675244140624L392.8657373046875,271.42875244140623Q395.0077373046875,273.45175244140626,395.6027373046875,273.45175244140626Q396.1977373046875,273.45175244140626,400.8982373046875,277.1407524414062Q405.5987373046875,280.82975244140624,406.3722373046875,280.82975244140624Q407.1457373046875,280.82975244140624,407.7407373046875,281.90075244140627Q408.4547373046875,282.97175244140624,412.3222373046875,285.88725244140625Q416.18973730468747,288.80275244140626,418.2127373046875,289.8737524414063Q420.5927373046875,291.18275244140625,422.2587373046875,292.13475244140625Q423.9247373046875,293.08675244140625,431.2432373046875,295.82375244140627Q438.5617373046875,298.56075244140624,440.2277373046875,300.82175244140626Q441.41773730468753,302.48775244140626,441.41773730468753,302.90375244140625Q441.41773730468753,303.3207524414063,440.2277373046875,304.2727524414063Q438.5617373046875,305.4627524414062,429.5177373046875,304.92775244140626Q420.4737373046875,304.39175244140625,417.61773730468747,302.96375244140626Q413.6907373046875,300.82175244140626,409.2877373046875,297.66825244140625Q404.8847373046875,294.51475244140624,403.2187373046875,292.4917524414062Q401.0767373046875,289.75475244140625,395.7812373046875,285.5302524414062Q390.4857373046875,281.30575244140624,388.8197373046875,279.5207524414062Q386.3207373046875,277.02175244140625,384.0597373046875,278.21175244140625Q381.7987373046875,279.40175244140624,375.2537373046875,286.30375244140623Q372.0407373046875,289.75475244140625,367.3997373046875,291.42075244140625Q362.7587373046875,293.08675244140625,360.7357373046875,294.1577524414063Q358.1177373046875,295.70475244140624,352.7627373046875,297.66825244140625Q347.4077373046875,299.63175244140626,346.9317373046875,299.51275244140623Q346.3367373046875,299.27475244140624,348.7167373046875,297.48975244140627Q349.9067373046875,296.65675244140624,351.2157373046875,295.70475244140624Q357.2847373046875,291.7777524414063,363.65123730468747,286.42275244140626Q370.0177373046875,281.06775244140624,372.5167373046875,277.8547524414063Q376.0867373046875,273.21375244140626,375.4917373046875,270.95275244140623Q375.2537373046875,270.23875244140623,374.6587373046875,270.23875244140623Q373.9447373046875,270.23875244140623,372.2787373046875,267.5612524414063Q370.61273730468747,264.8837524414063,370.61273730468747,263.9317524414063Q370.61273730468747,263.09875244140625,374.5397373046875,264.6457524414063Q378.2287373046875,265.95475244140624,380.0137373046875,265.47875244140624Q381.7987373046875,265.00275244140624,382.9887373046875,262.38475244140625Q384.0597373046875,260.24275244140625,384.0002373046875,259.52875244140625Q383.9407373046875,258.81475244140626,382.8697373046875,257.38675244140626Q381.3227373046875,255.12575244140623,379.9542373046875,255.06625244140625Q378.5857373046875,255.00675244140626,375.8487373046875,256.79175244140623Q372.6357373046875,258.9337524414062,370.1367373046875,259.4097524414062Q366.2097373046875,260.1237524414063,354.6667373046875,255.12575244140623Q352.1677373046875,254.05475244140627,352.1677373046875,253.69775244140624Q352.0487373046875,253.34075244140627,353.0007373046875,253.10275244140627Q354.6667373046875,252.38875244140624,358.1177373046875,252.38875244140624Q360.6167373046875,252.26975244140624,367.6377373046875,250.00875244140624Q374.6587373046875,247.74775244140625,380.7277373046875,245.01075244140625Q384.6547373046875,243.22575244140626,393.6987373046875,240.42925244140625Q402.7427373046875,237.63275244140624,404.7657373046875,236.50225244140626Q406.7887373046875,235.37175244140624,410.8347373046875,235.72875244140624ZM380.7277373046875,214.90375244140625Q380.2517373046875,213.59475244140626,380.5492373046875,213.35675244140626Q380.8467373046875,213.11875244140626,382.7507373046875,213.59475244140626Q384.6547373046875,213.95175244140626,387.7487373046875,215.85575244140625Q390.8427373046875,217.75975244140625,392.2707373046875,219.66375244140625Q394.8887373046875,222.75775244140624,391.1997373046875,226.20875244140626Q387.5107373046875,229.65975244140625,378.5857373046875,232.27775244140625Q374.3017373046875,233.70575244140625,372.9927373046875,234.18175244140625L372.7547373046875,234.06275244140625Q372.8737373046875,233.34875244140625,374.7777373046875,231.32575244140625Q379.8947373046875,225.61375244140623,380.9657373046875,222.57925244140625Q382.0367373046875,219.54475244140625,380.7277373046875,214.90375244140625Z" fill="#3D3D3D" fill-opacity="1"/></g></g><g><g><rect x="439.5057373046875" y="489.5337677001953" width="19" height="53.915489196777344" rx="6" fill="#F05959" fill-opacity="1"/></g><g><path d="M449.9297373046875,537.4617677001953Q450.0497373046875,536.9097677001953,450.1817373046875,536.8257677001953Q450.3137373046875,536.7417677001953,450.6977373046875,536.9337677001953Q451.27373730468753,537.2457677001953,450.6017373046875,538.6377677001954Q450.2417373046875,539.4537677001953,450.0257373046875,540.3057677001954Q449.8097373046875,541.1577677001953,449.8817373046875,541.3977677001953Q450.0017373046875,541.7337677001954,450.8297373046875,541.7937677001953Q451.6577373046875,541.8537677001954,452.9057373046875,541.6377677001954Q454.3697373046875,541.3257677001953,454.5617373046875,541.1697677001953Q454.7537373046875,541.0137677001953,454.8497373046875,540.4617677001953Q454.9937373046875,539.6937677001953,455.3057373046875,539.7897677001953Q455.4017373046875,539.8137677001953,455.5217373046875,539.9817677001953Q455.6897373046875,540.2697677001953,456.1217373046875,540.7017677001953Q456.5777373046875,541.1097677001953,456.6017373046875,541.7697677001953Q456.6257373046875,542.4297677001953,456.1937373046875,542.8377677001953Q455.7617373046875,543.2217677001953,454.1537373046875,543.4977677001953Q452.5457373046875,543.7737677001953,451.5857373046875,543.6537677001953Q450.1457373046875,543.4137677001953,449.4377373046875,542.9337677001953Q448.7297373046875,542.4537677001953,448.6337373046875,541.6377677001954Q448.5377373046875,541.1817677001953,448.6337373046875,540.7977677001953Q448.7297373046875,540.4137677001953,449.1137373046875,539.5257677001953Q449.73773730468747,538.1817677001953,449.9297373046875,537.4617677001953ZM445.2257373046875,523.8057677001954Q445.5137373046875,523.8057677001954,446.3777373046875,524.3697677001953Q447.2417373046875,524.9337677001953,447.5537373046875,525.3177677001953L447.8657373046875,525.7257677001953L448.9697373046875,525.3177677001953Q450.0737373046875,524.9337677001953,451.0337373046875,525.0537677001953Q451.7777373046875,525.1257677001953,452.1737373046875,525.4017677001954Q452.5697373046875,525.6777677001953,452.4257373046875,526.0137677001953Q452.3297373046875,526.2537677001953,451.1297373046875,526.2537677001953Q450.2897373046875,526.2537677001953,449.4857373046875,526.4937677001953Q448.6817373046875,526.7337677001954,448.4897373046875,527.0217677001954Q448.3937373046875,527.1657677001953,448.6217373046875,527.9817677001953Q448.8497373046875,528.7977677001953,448.9697373046875,528.8457677001953Q449.0417373046875,528.8697677001953,449.1617373046875,528.6897677001953Q449.2817373046875,528.5097677001953,449.4017373046875,528.2457677001953Q449.6657373046875,527.5977677001953,449.8337373046875,527.5017677001953Q450.0017373046875,527.4057677001953,450.9377373046875,527.8617677001953Q451.6577373046875,528.2217677001953,451.8497373046875,528.4497677001954Q452.0417373046875,528.6777677001953,451.7897373046875,528.9897677001953Q451.5377373046875,529.3017677001953,450.7457373046875,529.8777677001954Q449.5217373046875,530.6937677001953,449.5217373046875,530.8617677001953Q449.5217373046875,531.0057677001953,449.8577373046875,531.6897677001953Q450.1937373046875,532.3737677001953,450.3617373046875,532.6137677001954Q450.5297373046875,532.8297677001954,450.8417373046875,532.4937677001953Q451.0817373046875,532.2537677001953,451.5497373046875,532.2657677001953Q452.0177373046875,532.2777677001953,452.5217373046875,532.5177677001953Q452.8817373046875,532.6857677001954,452.8337373046875,533.1657677001953Q452.7857373046875,533.6457677001953,452.4257373046875,533.7897677001953Q452.0417373046875,533.9577677001953,451.4897373046875,534.5817677001953Q450.9377373046875,535.2057677001953,450.1697373046875,535.8057677001954Q449.0177373046875,536.6937677001953,447.7217373046875,538.2537677001953Q446.5217373046875,539.6937677001953,444.8657373046875,541.4697677001953Q443.7617373046875,542.5977677001953,443.7617373046875,542.7177677001953Q443.7617373046875,542.9097677001953,443.1377373046875,543.5337677001953Q442.5137373046875,544.1577677001953,442.3457373046875,544.1577677001953Q441.7217373046875,544.1577677001953,442.2977373046875,543.2937677001953Q442.8737373046875,542.4297677001953,445.1537373046875,539.8137677001953Q446.3537373046875,538.4217677001953,447.5057373046875,537.0537677001953Q448.6577373046875,535.6857677001954,448.6337373046875,535.6617677001954Q448.5617373046875,535.6137677001954,445.6097373046875,536.9577677001953Q444.8897373046875,537.2697677001953,444.2417373046875,537.6777677001953Q443.5937373046875,538.0857677001953,443.3297373046875,538.0857677001953Q443.0417373046875,538.0857677001953,442.6697373046875,537.7017677001953Q442.2977373046875,537.3177677001953,442.2977373046875,537.0537677001953Q442.2977373046875,536.6457677001953,442.7177373046875,536.1177677001953Q443.1377373046875,535.5897677001954,443.6177373046875,535.3737677001953Q444.2657373046875,535.0857677001953,444.8297373046875,534.5337677001953Q445.3937373046875,533.9817677001953,446.3777373046875,532.6137677001954Q447.2657373046875,531.4137677001953,447.4337373046875,530.9697677001953Q447.6017373046875,530.5257677001953,447.4097373046875,530.0217677001954Q447.2417373046875,529.6137677001954,447.0617373046875,528.9177677001953Q446.8817373046875,528.2217677001953,446.7017373046875,528.2217677001953Q446.5217373046875,528.2217677001953,445.9697373046875,528.7017677001953Q445.0097373046875,529.5657677001954,443.5217373046875,528.9657677001953Q442.8497373046875,528.6777677001953,442.8017373046875,528.7377677001953Q442.7537373046875,528.7977677001953,442.6937373046875,528.6297677001953Q442.6337373046875,528.4617677001953,444.2657373046875,527.6457677001953Q445.8977373046875,526.8297677001954,445.9697373046875,526.6137677001954Q446.1377373046875,526.2297677001953,445.1057373046875,524.7177677001953Q444.7937373046875,524.2377677001953,444.8777373046875,524.0217677001954Q444.9617373046875,523.8057677001954,445.2257373046875,523.8057677001954ZM448.5377373046875,532.8777677001954Q448.2257373046875,532.1577677001953,447.9857373046875,532.1577677001953Q447.7457373046875,532.1577677001953,447.2897373046875,532.7817677001954Q446.8337373046875,533.4057677001953,446.7257373046875,533.4897677001953Q446.6177373046875,533.5737677001953,446.0177373046875,534.4257677001954Q445.4177373046875,535.2777677001953,445.6577373046875,535.2777677001953Q445.8977373046875,535.2777677001953,446.9897373046875,534.7257677001953Q448.0817373046875,534.1737677001953,448.4897373046875,533.8377677001953L448.8497373046875,533.5737677001953L448.5377373046875,532.8777677001954Z" fill="#FFFFFF" fill-opacity="1"/></g><g><path d="M453.4017373046875,493.3257677001953Q453.6177373046875,493.10976770019533,453.8697373046875,493.12176770019533Q454.1217373046875,493.13376770019534,455.1537373046875,493.3737677001953Q456.5457373046875,493.7337677001953,456.5697373046875,494.1177677001953Q456.5697373046875,494.3097677001953,456.2817373046875,494.54976770019533Q455.8977373046875,494.8857677001953,455.2977373046875,494.8857677001953Q454.7697373046875,494.8857677001953,453.7617373046875,495.2577677001953Q452.7537373046875,495.6297677001953,452.6817373046875,495.8697677001953Q452.6097373046875,496.06176770019533,453.1137373046875,496.6857677001953Q453.6177373046875,497.2857677001953,453.6177373046875,497.63376770019534Q453.6177373046875,497.9817677001953,453.1377373046875,498.6537677001953Q452.6577373046875,499.27776770019534,452.5377373046875,499.8537677001953L452.4657373046875,500.4057677001953L454.3377373046875,500.3337677001953Q456.2337373046875,500.2377677001953,456.77373730468753,500.51376770019533Q457.3137373046875,500.7897677001953,457.7697373046875,500.9577677001953Q458.5377373046875,501.2457677001953,458.3217373046875,502.01376770019533Q458.1297373046875,502.8057677001953,455.9217373046875,502.7337677001953Q455.2257373046875,502.7097677001953,455.0817373046875,502.6497677001953Q454.9377373046875,502.5897677001953,455.0097373046875,502.3257677001953Q455.1057373046875,501.96576770019533,454.7937373046875,501.96576770019533Q453.4257373046875,501.96576770019533,448.3137373046875,503.62176770019533Q447.3777373046875,503.9097677001953,447.1377373046875,503.8137677001953Q446.5857373046875,503.59776770019533,446.5857373046875,502.27776770019534Q446.5857373046875,501.6777677001953,446.8737373046875,501.4977677001953Q447.1617373046875,501.3177677001953,448.1457373046875,501.2937677001953Q449.5617373046875,501.2457677001953,450.1497373046875,500.8617677001953Q450.73773730468747,500.47776770019533,451.0737373046875,499.3257677001953Q451.2897373046875,498.5337677001953,451.3257373046875,497.63376770019534Q451.3617373046875,496.7337677001953,451.1337373046875,496.5777677001953Q450.9057373046875,496.4217677001953,449.9697373046875,496.4217677001953Q449.3937373046875,496.4217677001953,449.0697373046875,496.3377677001953Q448.7457373046875,496.25376770019534,448.3377373046875,495.9417677001953Q447.8817373046875,495.6057677001953,447.7497373046875,495.5817677001953Q447.6177373046875,495.5577677001953,447.4497373046875,495.7737677001953Q447.2577373046875,496.08576770019533,446.6457373046875,497.8377677001953Q446.0337373046875,499.5897677001953,445.8057373046875,500.1297677001953Q445.5777373046875,500.66976770019534,445.5777373046875,501.1857677001953Q445.5777373046875,501.7017677001953,445.2537373046875,502.9377677001953Q444.9297373046875,504.1737677001953,444.9297373046875,504.7737677001953Q444.9297373046875,505.15776770019534,444.8457373046875,505.30176770019534Q444.7617373046875,505.4457677001953,444.4977373046875,505.5177677001953Q444.1137373046875,505.5897677001953,443.6937373046875,505.4337677001953Q443.2737373046875,505.27776770019534,443.2737373046875,505.01376770019533Q443.2737373046875,504.7977677001953,442.7697373046875,504.0297677001953L442.2417373046875,503.2617677001953L442.5777373046875,502.9017677001953Q442.9137373046875,502.5417677001953,443.1537373046875,501.2937677001953Q443.3217373046875,500.50176770019533,443.3217373046875,500.1777677001953Q443.3217373046875,499.8537677001953,443.1777373046875,499.4937677001953Q443.0817373046875,499.25376770019534,443.0097373046875,498.8937677001953Q442.9377373046875,498.5337677001953,442.9497373046875,498.2697677001953Q442.9617373046875,498.0057677001953,443.0457373046875,498.0057677001953Q443.1297373046875,498.0057677001953,443.8017373046875,498.5097677001953Q444.4737373046875,499.01376770019533,444.6897373046875,499.01376770019533Q444.8577373046875,499.01376770019533,445.3977373046875,498.2217677001953Q445.9377373046875,497.4297677001953,446.2977373046875,496.6137677001953Q446.6097373046875,495.96576770019533,447.0177373046875,495.4137677001953Q447.2817373046875,495.0537677001953,447.4977373046875,494.9697677001953Q447.7137373046875,494.8857677001953,448.4337373046875,494.8857677001953Q449.4177373046875,494.8857677001953,451.1817373046875,494.3337677001953Q452.9457373046875,493.7817677001953,453.4017373046875,493.3257677001953ZM446.7297373046875,491.9577677001953Q447.2097373046875,492.5097677001953,447.1857373046875,492.98976770019533Q447.1617373046875,493.3497677001953,446.9937373046875,493.4457677001953Q446.8257373046875,493.5417677001953,446.0577373046875,493.6617677001953Q444.9537373046875,493.8057677001953,444.6177373046875,494.1417677001953Q444.2817373046875,494.4537677001953,444.2817373046875,494.2377677001953Q444.2817373046875,494.0697677001953,444.5217373046875,493.4937677001953Q444.8097373046875,492.8217677001953,444.7857373046875,491.63376770019534Q444.7617373046875,490.4457677001953,444.9057373046875,490.4457677001953Q445.0497373046875,490.4457677001953,445.6857373046875,490.9737677001953Q446.3217373046875,491.50176770019533,446.7297373046875,491.9577677001953Z" fill="#FFFFFF" fill-opacity="1"/></g><g><path d="M452.4737373046875,504.1177677001953Q452.9057373046875,503.7817677001953,453.1937373046875,503.7697677001953Q453.4817373046875,503.7577677001953,454.3217373046875,504.0217677001953Q455.0657373046875,504.2857677001953,455.3657373046875,504.51376770019533Q455.6657373046875,504.74176770019534,455.6657373046875,505.0417677001953Q455.6657373046875,505.3417677001953,455.4017373046875,505.4617677001953Q455.1377373046875,505.5817677001953,453.6977373046875,505.8697677001953Q452.5217373046875,506.08576770019533,451.4777373046875,506.5177677001953Q450.4337373046875,506.9497677001953,450.4337373046875,507.1657677001953Q450.4337373046875,507.3097677001953,450.8897373046875,507.3817677001953L451.8977373046875,507.59776770019533Q452.4257373046875,507.69376770019534,452.8097373046875,508.3417677001953Q453.0977373046875,508.7977677001953,453.1457373046875,509.16976770019534Q453.1937373046875,509.5417677001953,453.1457373046875,510.9337677001953Q453.0497373046875,513.0697677001953,452.9297373046875,513.9937677001953Q452.8097373046875,514.9177677001953,452.5337373046875,515.3137677001953Q452.2577373046875,515.7097677001954,451.6337373046875,515.8777677001954Q450.8897373046875,516.0937677001953,450.9377373046875,516.2617677001953Q450.9617373046875,516.3577677001953,451.4417373046875,516.3577677001953Q452.1377373046875,516.3817677001953,452.77373730468753,516.7417677001953Q453.4097373046875,517.1017677001953,453.6977373046875,517.6537677001953Q454.0097373046875,518.3017677001953,454.0097373046875,518.7577677001954Q454.0097373046875,519.2137677001953,453.6497373046875,519.9337677001953Q453.3617373046875,520.5577677001953,453.4937373046875,520.7377677001953Q453.6257373046875,520.9177677001953,454.6817373046875,521.2297677001953Q455.4977373046875,521.4457677001953,456.4097373046875,521.9017677001954Q457.3217373046875,522.3577677001953,457.6577373046875,522.7177677001953Q458.0177373046875,523.0777677001953,457.8737373046875,523.5577677001953Q457.8017373046875,524.0377677001953,457.4177373046875,524.1697677001953Q457.0337373046875,524.3017677001953,456.5777373046875,524.0137677001953Q455.9777373046875,523.6297677001953,453.3857373046875,522.6937677001953Q452.5457373046875,522.3817677001953,451.9097373046875,522.3097677001953Q451.27373730468753,522.2377677001953,451.1777373046875,522.4297677001953Q451.0577373046875,522.5737677001953,450.0257373046875,523.1497677001953Q447.5537373046875,524.4937677001953,446.3057373046875,522.7657677001953Q446.0177373046875,522.3817677001953,445.8497373046875,522.3217677001953Q445.6817373046875,522.2617677001953,445.4657373046875,522.5017677001953Q445.2497373046875,522.7177677001953,444.7937373046875,523.0057677001953Q444.3377373046875,523.3177677001953,444.1217373046875,523.1377677001954Q443.9057373046875,522.9577677001953,443.9777373046875,522.2857677001953Q444.0257373046875,521.8777677001954,444.1337373046875,521.6977677001953Q444.2417373046875,521.5177677001953,444.5777373046875,521.3257677001953Q445.1057373046875,521.0377677001953,445.3817373046875,520.4257677001954Q445.6577373046875,519.8137677001953,445.8257373046875,519.8137677001953Q445.9937373046875,519.8137677001953,445.9937373046875,519.5617677001953Q445.9937373046875,519.3097677001953,446.1857373046875,519.3097677001953Q446.3537373046875,519.3097677001953,447.2177373046875,518.2897677001953Q448.0817373046875,517.2697677001953,448.2257373046875,516.9337677001953Q448.27373730468753,516.7417677001953,448.2497373046875,516.7177677001953Q448.2257373046875,516.6937677001953,448.0337373046875,516.7657677001953Q447.6977373046875,516.9097677001953,447.2177373046875,517.0897677001954Q446.73773730468747,517.2697677001953,446.1257373046875,517.6417677001953Q445.5137373046875,518.0137677001953,444.9137373046875,518.1337677001953Q444.5297373046875,518.1817677001953,444.4337373046875,518.1457677001953Q444.3377373046875,518.1097677001953,444.3377373046875,517.7977677001953Q444.3377373046875,516.6457677001953,445.1057373046875,516.4777677001953Q445.6337373046875,516.3337677001953,446.5457373046875,515.8657677001953Q447.4577373046875,515.3977677001953,447.7697373046875,515.0857677001953L448.2017373046875,514.7257677001953L447.5777373046875,514.7257677001953L446.9777373046875,514.7257677001953L446.6177373046875,513.5737677001953L446.2817373046875,512.4457677001953L446.6417373046875,510.9337677001953Q447.0017373046875,509.3737677001953,447.4817373046875,508.3657677001953Q447.5777373046875,508.0777677001953,447.6737373046875,507.8497677001953Q447.7697373046875,507.62176770019533,447.7937373046875,507.47776770019533Q447.8177373046875,507.3337677001953,447.7697373046875,507.3337677001953Q447.4577373046875,507.3337677001953,445.6097373046875,508.8457677001953Q444.6257373046875,509.6377677001953,444.1937373046875,509.6377677001953Q443.7617373046875,509.6377677001953,442.2377373046875,509.06176770019533Q440.7137373046875,508.4857677001953,440.7137373046875,508.2937677001953Q440.7137373046875,508.1977677001953,441.8177373046875,508.1017677001953Q442.6097373046875,508.0537677001953,444.2657373046875,507.57376770019533Q445.9217373046875,507.0937677001953,446.2577373046875,506.8057677001953Q446.4737373046875,506.6377677001953,446.4737373046875,506.7577677001953Q446.4737373046875,506.8777677001953,446.8337373046875,506.6137677001953Q447.1937373046875,506.3497677001953,447.4337373046875,506.3497677001953Q447.6737373046875,506.3497677001953,448.0937373046875,506.03776770019533Q448.5137373046875,505.7257677001953,448.9457373046875,505.6297677001953Q449.73773730468747,505.3897677001953,450.9377373046875,504.8737677001953Q452.1377373046875,504.3577677001953,452.4737373046875,504.1177677001953ZM451.3697373046875,509.6857677001953Q451.3217373046875,508.9177677001953,451.1537373046875,508.8937677001953Q450.8897373046875,508.8217677001953,450.1817373046875,509.16976770019534Q449.4737373046875,509.5177677001953,448.8977373046875,509.9497677001953Q448.3217373046875,510.3817677001953,448.4657373046875,510.50176770019533Q448.5617373046875,510.59776770019533,449.5817373046875,510.3337677001953Q450.6017373046875,510.0697677001953,451.0097373046875,510.2617677001953Q451.3217373046875,510.4057677001953,451.3577373046875,510.3337677001953Q451.3937373046875,510.2617677001953,451.3697373046875,509.6857677001953ZM451.5137373046875,511.3657677001953Q451.6097373046875,511.0537677001953,451.5257373046875,510.9337677001953Q451.4417373046875,510.8137677001953,451.2257373046875,510.9577677001953Q450.9857373046875,511.1017677001953,450.0977373046875,511.1977677001953Q448.9697373046875,511.3177677001953,448.5377373046875,511.5097677001953Q448.1057373046875,511.7017677001953,447.9617373046875,512.1337677001953Q447.7697373046875,512.6377677001954,447.8537373046875,512.7217677001953Q447.9377373046875,512.8057677001954,449.1857373046875,512.2057677001953Q450.4337373046875,511.6057677001953,450.9257373046875,511.6057677001953Q451.4177373046875,511.6057677001953,451.5137373046875,511.3657677001953ZM450.8897373046875,512.9977677001954Q450.8897373046875,512.7577677001954,449.8577373046875,513.2377677001953Q449.1857373046875,513.5497677001953,448.8497373046875,513.5617677001953Q448.5137373046875,513.5737677001953,448.2977373046875,513.7177677001953Q448.1057373046875,513.8617677001953,448.2137373046875,514.1377677001954Q448.3217373046875,514.4137677001953,448.5857373046875,514.4137677001953Q448.8017373046875,514.4137677001953,449.8457373046875,513.7657677001953Q450.8897373046875,513.1177677001953,450.8897373046875,512.9977677001954ZM451.8257373046875,517.8457677001953Q451.0577373046875,517.9417677001953,451.0577373046875,518.1817677001953Q451.0577373046875,518.3497677001953,450.8537373046875,518.3497677001953Q450.6497373046875,518.3497677001953,449.9777373046875,518.9257677001954L449.3537373046875,519.5257677001953L449.9057373046875,519.7657677001953Q450.6017373046875,520.0537677001953,450.9857373046875,519.9337677001953Q451.3697373046875,519.8137677001953,451.6817373046875,519.1897677001953Q452.0657373046875,518.4217677001953,452.0657373046875,518.1337677001953Q452.0657373046875,517.8457677001953,451.8257373046875,517.8457677001953ZM447.3137373046875,521.1097677001953Q446.9297373046875,521.4217677001953,446.8697373046875,521.5537677001953Q446.8097373046875,521.6857677001954,446.9777373046875,521.9017677001954Q447.4577373046875,522.6457677001953,448.6337373046875,522.1417677001953Q449.6177373046875,521.7097677001954,449.7137373046875,521.3977677001953Q449.7137373046875,521.3257677001953,449.6177373046875,521.3017677001953Q449.5937373046875,521.2777677001953,449.5697373046875,521.2777677001953Q449.3537373046875,521.2777677001953,449.1497373046875,521.2897677001953Q448.9457373046875,521.3017677001953,448.9457373046875,521.1457677001953Q448.9457373046875,520.9897677001953,448.4177373046875,520.8097677001953Q447.8897373046875,520.6297677001953,447.8777373046875,520.6297677001953Q447.8657373046875,520.6297677001953,447.3137373046875,521.1097677001953Z" fill="#FFFFFF" fill-opacity="1"/></g></g></g></svg>