<svg xmlns="http://www.w3.org/2000/svg" xmlns:xlink="http://www.w3.org/1999/xlink" fill="none" version="1.1" width="2492.068359375" height="2272.862548828125" viewBox="0 0 2492.068359375 2272.862548828125"><defs><filter id="master_svg0_10_015" filterUnits="objectBoundingBox" color-interpolation-filters="sRGB" x="-0.5488452746906282" y="-0.7232635251505728" width="2.0976905493812565" height="2.4465270503011456"><feFlood flood-opacity="0" result="BackgroundImageFix"/><feBlend mode="normal" in="SourceGraphic" in2="BackgroundImageFix" result="shape"/><feGaussianBlur stdDeviation="153" result="effect1_foregroundBlur"/></filter><filter id="master_svg1_10_002" filterUnits="objectBoundingBox" color-interpolation-filters="sRGB" x="-1.2151400978946234" y="-1.400898393313192" width="3.430280195789247" height="3.801796786626384"><feFlood flood-opacity="0" result="BackgroundImageFix"/><feBlend mode="normal" in="SourceGraphic" in2="BackgroundImageFix" result="shape"/><feGaussianBlur stdDeviation="153" result="effect1_foregroundBlur"/></filter></defs><g filter="url(#master_svg0_10_015)"><g><path d="M1546.625,1307.477C1578.625,1359.377,1596.025,1405.977,1594.725,1451.4769999999999C1593.525,1496.877,1573.725,1541.077,1541.725,1600.577C1509.725,1660.077,1465.525,1734.877,1399.225,1756.9769999999999C1332.925,1779.077,1244.5255,1748.4769999999999,1203.4255,1688.9769999999999C1162.22546,1629.4769999999999,1168.22546,1541.077,1174.42548,1458.777C1180.5255,1376.577,1186.7255,1300.377,1227.9255,1248.5772C1269.0255,1196.7772,1345.225,1169.1772,1406.625,1183.97717C1468.025,1198.6772,1514.625,1255.6772,1546.625,1307.477Z" fill="#FDC7DD" fill-opacity="1" style="mix-blend-mode:passthrough"/></g><g><path d="M1913.416,971.0816C1948.516,991.0816,1977.016,1022.6816,1995.316,1058.782C2013.616,1094.882,2021.816,1135.382,2027.916,1179.382C2033.916,1223.382,2037.916,1270.882,2020.816,1309.0819999999999C2003.716,1347.382,1965.616,1376.382,1924.516,1397.782C1883.316,1419.182,1839.216,1433.0819999999999,1796.816,1429.882C1754.516,1426.682,1714.016,1406.482,1681.516,1380.0819999999999C1649.0161,1353.682,1624.6161,1321.0819999999999,1600.5161,1285.982C1576.4161,1250.882,1552.716141,1213.382,1552.0161438,1175.482C1551.316147,1137.5819999999999,1573.5161,1099.182,1592.9161,1055.882C1612.2161,1012.5816,1628.6161,964.3816,1661.816,943.3816C1695.016,922.38156,1745.016,928.581558,1790.816,935.78156C1836.716,943.0816,1878.316,951.1816,1913.416,971.0816Z" fill="#AAAFFF" fill-opacity="1" style="mix-blend-mode:passthrough"/></g><g filter="url(#master_svg1_10_002)"><path d="M1231.729,1018.896C1259.429,1047.596,1289.929,1058.896,1327.429,1080.496C1364.929,1102.196,1409.429,1134.196,1419.429,1171.896C1429.329,1209.696,1404.729,1253.196,1372.229,1283.496C1339.729,1313.796,1299.329,1330.896,1261.729,1342.196C1224.029,1353.396,1189.029,1358.796,1158.229,1351.596C1127.329,1344.396,1100.729,1324.596,1070.529,1308.996C1040.329,1293.396,1006.7291,1282.096,976.3291,1258.996C946.0291,1235.896,919.02907,1200.996,918.029068,1165.596C917.029068,1130.196,942.0291,1094.196,963.0291,1054.896C984.0291,1015.6964,1001.0291,973.1964,1032.229,946.4964C1063.329,919.7964,1108.729,908.99638,1143.829,926.59639C1179.029,944.1964,1204.029,990.2964,1231.729,1018.896Z" fill="#C5FFF5" fill-opacity="1" style="mix-blend-mode:passthrough"/></g></g></svg>